{
    "asset" : {
        "generator" : "Khronos glTF Blender I/O v1.4.40",
        "version" : "2.0"
    },
    "scene" : 0,
    "scenes" : [
        {
            "name" : "Scene",
            "nodes" : [
                0
            ]
        }
    ],
    "nodes" : [
        {
            "mesh" : 0,
            "name" : "Pistol"
        }
    ],
    "materials" : [
        {
            "doubleSided" : true,
            "name" : "Material",
            "pbrMetallicRoughness" : {
                "baseColorFactor" : [
                    0.06371846795082092,
                    0.06371846795082092,
                    0.06371846795082092,
                    1
                ],
                "metallicFactor" : 0,
                "roughnessFactor" : 0.5
            }
        },
        {
            "doubleSided" : true,
            "name" : "Details",
            "pbrMetallicRoughness" : {
                "baseColorFactor" : [
                    0.8000000715255737,
                    0.06273561716079712,
                    0.0680837631225586,
                    1
                ],
                "metallicFactor" : 0,
                "roughnessFactor" : 0.5
            }
        },
        {
            "doubleSided" : true,
            "name" : "Main",
            "pbrMetallicRoughness" : {
                "baseColorFactor" : [
                    0.4987098276615143,
                    0.5618489384651184,
                    0.6151707172393799,
                    1
                ],
                "metallicFactor" : 0,
                "roughnessFactor" : 0.5
            }
        },
        {
            "doubleSided" : true,
            "name" : "Main2",
            "pbrMetallicRoughness" : {
                "baseColorFactor" : [
                    0.04202621802687645,
                    0.04202621802687645,
                    0.04202621802687645,
                    1
                ],
                "metallicFactor" : 0,
                "roughnessFactor" : 0.5
            }
        },
        {
            "doubleSided" : true,
            "name" : "Handle",
            "pbrMetallicRoughness" : {
                "baseColorFactor" : [
                    0.01884736306965351,
                    0.01884736306965351,
                    0.01884736306965351,
                    1
                ],
                "metallicFactor" : 0,
                "roughnessFactor" : 0.5
            }
        }
    ],
    "meshes" : [
        {
            "name" : "Cube.002",
            "primitives" : [
                {
                    "attributes" : {
                        "POSITION" : 0,
                        "NORMAL" : 1
                    },
                    "indices" : 2,
                    "material" : 0
                },
                {
                    "attributes" : {
                        "POSITION" : 3,
                        "NORMAL" : 4
                    },
                    "indices" : 5,
                    "material" : 1
                },
                {
                    "attributes" : {
                        "POSITION" : 6,
                        "NORMAL" : 7
                    },
                    "indices" : 8,
                    "material" : 2
                },
                {
                    "attributes" : {
                        "POSITION" : 9,
                        "NORMAL" : 10
                    },
                    "indices" : 11,
                    "material" : 3
                },
                {
                    "attributes" : {
                        "POSITION" : 12,
                        "NORMAL" : 13
                    },
                    "indices" : 14,
                    "material" : 4
                }
            ]
        }
    ],
    "accessors" : [
        {
            "bufferView" : 0,
            "componentType" : 5126,
            "count" : 1810,
            "max" : [
                0.1564408838748932,
                1.1359951496124268,
                0.3605106770992279
            ],
            "min" : [
                -0.1564408838748932,
                -0.5595084428787231,
                -2.3063862323760986
            ],
            "type" : "VEC3"
        },
        {
            "bufferView" : 1,
            "componentType" : 5126,
            "count" : 1810,
            "type" : "VEC3"
        },
        {
            "bufferView" : 2,
            "componentType" : 5123,
            "count" : 3456,
            "type" : "SCALAR"
        },
        {
            "bufferView" : 3,
            "componentType" : 5126,
            "count" : 432,
            "max" : [
                0.14310094714164734,
                0.7105638384819031,
                0.40481138229370117
            ],
            "min" : [
                -0.14310094714164734,
                -0.6040369272232056,
                -1.8572036027908325
            ],
            "type" : "VEC3"
        },
        {
            "bufferView" : 4,
            "componentType" : 5126,
            "count" : 432,
            "type" : "VEC3"
        },
        {
            "bufferView" : 5,
            "componentType" : 5123,
            "count" : 684,
            "type" : "SCALAR"
        },
        {
            "bufferView" : 6,
            "componentType" : 5126,
            "count" : 525,
            "max" : [
                0.19063937664031982,
                1.064939260482788,
                0.2837078869342804
            ],
            "min" : [
                -0.19063937664031982,
                0.20459310710430145,
                -2.124375343322754
            ],
            "type" : "VEC3"
        },
        {
            "bufferView" : 7,
            "componentType" : 5126,
            "count" : 525,
            "type" : "VEC3"
        },
        {
            "bufferView" : 8,
            "componentType" : 5123,
            "count" : 960,
            "type" : "SCALAR"
        },
        {
            "bufferView" : 9,
            "componentType" : 5126,
            "count" : 42,
            "max" : [
                0.14936375617980957,
                0.8665030598640442,
                0.4439370334148407
            ],
            "min" : [
                -0.14936375617980957,
                -0.6834855675697327,
                -1.8629246950149536
            ],
            "type" : "VEC3"
        },
        {
            "bufferView" : 10,
            "componentType" : 5126,
            "count" : 42,
            "type" : "VEC3"
        },
        {
            "bufferView" : 11,
            "componentType" : 5123,
            "count" : 72,
            "type" : "SCALAR"
        },
        {
            "bufferView" : 12,
            "componentType" : 5126,
            "count" : 52,
            "max" : [
                0.08304618299007416,
                0.4163024127483368,
                0.10429675132036209
            ],
            "min" : [
                -0.08304618299007416,
                -0.4614209234714508,
                -0.3638865351676941
            ],
            "type" : "VEC3"
        },
        {
            "bufferView" : 13,
            "componentType" : 5126,
            "count" : 52,
            "type" : "VEC3"
        },
        {
            "bufferView" : 14,
            "componentType" : 5123,
            "count" : 78,
            "type" : "SCALAR"
        }
    ],
    "bufferViews" : [
        {
            "buffer" : 0,
            "byteLength" : 21720,
            "byteOffset" : 0
        },
        {
            "buffer" : 0,
            "byteLength" : 21720,
            "byteOffset" : 21720
        },
        {
            "buffer" : 0,
            "byteLength" : 6912,
            "byteOffset" : 43440
        },
        {
            "buffer" : 0,
            "byteLength" : 5184,
            "byteOffset" : 50352
        },
        {
            "buffer" : 0,
            "byteLength" : 5184,
            "byteOffset" : 55536
        },
        {
            "buffer" : 0,
            "byteLength" : 1368,
            "byteOffset" : 60720
        },
        {
            "buffer" : 0,
            "byteLength" : 6300,
            "byteOffset" : 62088
        },
        {
            "buffer" : 0,
            "byteLength" : 6300,
            "byteOffset" : 68388
        },
        {
            "buffer" : 0,
            "byteLength" : 1920,
            "byteOffset" : 74688
        },
        {
            "buffer" : 0,
            "byteLength" : 504,
            "byteOffset" : 76608
        },
        {
            "buffer" : 0,
            "byteLength" : 504,
            "byteOffset" : 77112
        },
        {
            "buffer" : 0,
            "byteLength" : 144,
            "byteOffset" : 77616
        },
        {
            "buffer" : 0,
            "byteLength" : 624,
            "byteOffset" : 77760
        },
        {
            "buffer" : 0,
            "byteLength" : 624,
            "byteOffset" : 78384
        },
        {
            "buffer" : 0,
            "byteLength" : 156,
            "byteOffset" : 79008
        }
    ],
    "buffers" : [
        {
            "byteLength" : 79164,
            "uri" : "data:application/octet-stream;base64,"
        }
    ]
}
