{
    "asset" : {
        "generator" : "Khronos glTF Blender I/O v1.4.40",
        "version" : "2.0"
    },
    "scene" : 0,
    "scenes" : [
        {
            "name" : "Scene",
            "nodes" : [
                0
            ]
        }
    ],
    "nodes" : [
        {
            "mesh" : 0,
            "name" : "Lightning Gun"
        }
    ],
    "materials" : [
        {
            "doubleSided" : true,
            "name" : "Main",
            "pbrMetallicRoughness" : {
                "baseColorFactor" : [
                    0.07208669930696487,
                    0.6248289346694946,
                    1,
                    1
                ],
                "metallicFactor" : 0,
                "roughnessFactor" : 0.5
            }
        },
        {
            "doubleSided" : true,
            "name" : "Detail",
            "pbrMetallicRoughness" : {
                "baseColorFactor" : [
                    1,
                    0.18217386305332184,
                    0.019620602950453758,
                    1
                ],
                "metallicFactor" : 0,
                "roughnessFactor" : 0.5
            }
        },
        {
            "doubleSided" : true,
            "name" : "Barrel",
            "pbrMetallicRoughness" : {
                "baseColorFactor" : [
                    0.15280155837535858,
                    0.7571906447410583,
                    1,
                    1
                ],
                "metallicFactor" : 0,
                "roughnessFactor" : 0.5
            }
        },
        {
            "doubleSided" : true,
            "name" : "Trigger",
            "pbrMetallicRoughness" : {
                "baseColorFactor" : [
                    0.027208736166357994,
                    0.027208736166357994,
                    0.027208736166357994,
                    1
                ],
                "metallicFactor" : 0,
                "roughnessFactor" : 0.5
            }
        }
    ],
    "meshes" : [
        {
            "name" : "Cube",
            "primitives" : [
                {
                    "attributes" : {
                        "POSITION" : 0,
                        "NORMAL" : 1
                    },
                    "indices" : 2,
                    "material" : 0
                },
                {
                    "attributes" : {
                        "POSITION" : 3,
                        "NORMAL" : 4
                    },
                    "indices" : 5,
                    "material" : 1
                },
                {
                    "attributes" : {
                        "POSITION" : 6,
                        "NORMAL" : 7
                    },
                    "indices" : 8,
                    "material" : 2
                },
                {
                    "attributes" : {
                        "POSITION" : 9,
                        "NORMAL" : 10
                    },
                    "indices" : 11,
                    "material" : 3
                }
            ]
        }
    ],
    "accessors" : [
        {
            "bufferView" : 0,
            "componentType" : 5126,
            "count" : 2167,
            "max" : [
                0.19298981130123138,
                1.7272729873657227,
                1.341564416885376
            ],
            "min" : [
                -0.19298981130123138,
                -0.43273496627807617,
                -2.5123891830444336
            ],
            "type" : "VEC3"
        },
        {
            "bufferView" : 1,
            "componentType" : 5126,
            "count" : 2167,
            "type" : "VEC3"
        },
        {
            "bufferView" : 2,
            "componentType" : 5123,
            "count" : 3486,
            "type" : "SCALAR"
        },
        {
            "bufferView" : 3,
            "componentType" : 5126,
            "count" : 1760,
            "max" : [
                0.48885050415992737,
                1.7272729873657227,
                0.3041286766529083
            ],
            "min" : [
                -0.4878208637237549,
                -0.35318708419799805,
                -3.1295838356018066
            ],
            "type" : "VEC3"
        },
        {
            "bufferView" : 4,
            "componentType" : 5126,
            "count" : 1760,
            "type" : "VEC3"
        },
        {
            "bufferView" : 5,
            "componentType" : 5123,
            "count" : 2886,
            "type" : "SCALAR"
        },
        {
            "bufferView" : 6,
            "componentType" : 5126,
            "count" : 1012,
            "max" : [
                0.4670509994029999,
                1.599297285079956,
                1.6724059581756592
            ],
            "min" : [
                -0.46602141857147217,
                -0.0702800527215004,
                -1.4922622442245483
            ],
            "type" : "VEC3"
        },
        {
            "bufferView" : 7,
            "componentType" : 5126,
            "count" : 1012,
            "type" : "VEC3"
        },
        {
            "bufferView" : 8,
            "componentType" : 5123,
            "count" : 1578,
            "type" : "SCALAR"
        },
        {
            "bufferView" : 9,
            "componentType" : 5126,
            "count" : 56,
            "max" : [
                0.032977569848299026,
                0.3313359320163727,
                -0.5175312161445618
            ],
            "min" : [
                -0.032977569848299026,
                0.11238474398851395,
                -0.6193942427635193
            ],
            "type" : "VEC3"
        },
        {
            "bufferView" : 10,
            "componentType" : 5126,
            "count" : 56,
            "type" : "VEC3"
        },
        {
            "bufferView" : 11,
            "componentType" : 5123,
            "count" : 84,
            "type" : "SCALAR"
        }
    ],
    "bufferViews" : [
        {
            "buffer" : 0,
            "byteLength" : 26004,
            "byteOffset" : 0
        },
        {
            "buffer" : 0,
            "byteLength" : 26004,
            "byteOffset" : 26004
        },
        {
            "buffer" : 0,
            "byteLength" : 6972,
            "byteOffset" : 52008
        },
        {
            "buffer" : 0,
            "byteLength" : 21120,
            "byteOffset" : 58980
        },
        {
            "buffer" : 0,
            "byteLength" : 21120,
            "byteOffset" : 80100
        },
        {
            "buffer" : 0,
            "byteLength" : 5772,
            "byteOffset" : 101220
        },
        {
            "buffer" : 0,
            "byteLength" : 12144,
            "byteOffset" : 106992
        },
        {
            "buffer" : 0,
            "byteLength" : 12144,
            "byteOffset" : 119136
        },
        {
            "buffer" : 0,
            "byteLength" : 3156,
            "byteOffset" : 131280
        },
        {
            "buffer" : 0,
            "byteLength" : 672,
            "byteOffset" : 134436
        },
        {
            "buffer" : 0,
            "byteLength" : 672,
            "byteOffset" : 135108
        },
        {
            "buffer" : 0,
            "byteLength" : 168,
            "byteOffset" : 135780
        }
    ],
    "buffers" : [
        {
            "byteLength" : 135948,
            "uri" : "data:application/octet-stream;base64,"
        }
    ]
}
